<?xml version="1.0" encoding="UTF-8"?>
<svg width="250px" height="250px" viewBox="0 0 250 250" version="1.1" xmlns="http://www.w3.org/2000/svg" xmlns:xlink="http://www.w3.org/1999/xlink" preserveAspectRatio="none">
    <!-- Generator: Sketch 51.3 (57544) - http://www.bohemiancoding.com/sketch -->
    <title>img_ReachMillionsofPlayers_new</title>
    <desc>Created with Sketch.</desc>
    <defs></defs>
    <g id="img_ReachMillionsofPlayers_new" stroke="none" stroke-width="1" fill="none" fill-rule="evenodd">
        <g id="img_ReachMillionsofPlayers" transform="translate(-5.000000, -5.000000)">
            <g>
                <rect id="Rectangle-4" fill-opacity="0" fill="#FFFFFF" fill-rule="nonzero" x="0" y="0" width="260" height="260"></rect>
                <circle id="Oval-2" fill="#EEEEEE" fill-rule="nonzero" cx="130" cy="130" r="100"></circle>
                <circle id="Oval-2" fill="#E3E3E3" fill-rule="nonzero" cx="130" cy="130" r="75"></circle>
                <g id="2-2" transform="translate(24.000000, 38.000000)">
                    <g id="lines" transform="translate(18.000000, 9.000000)">
                        <path d="M5,138 L89,83" id="Line" stroke="#0074C0" stroke-width="3"></path>
                        <path d="M90,87.5 L87.5,5.5" id="Line" stroke="#0074C0" stroke-width="3"></path>
                        <path d="M88,84 L192,71" id="Line" stroke="#0074C0" stroke-width="3"></path>
                        <path d="M89,88 L105.5,157.5" id="Line" stroke="#0074C0" stroke-width="3"></path>
                        <path d="M0.5,36.5 L88,84" id="Line" stroke="#0074C0" stroke-width="3"></path>
                        <path d="M15.5,83.5 L56,150" id="Line-2" stroke="#00A2FF" stroke-width="2" stroke-dasharray="8"></path>
                        <path d="M158,3 L56,149" id="Line-2" stroke="#00A2FF" stroke-width="2" stroke-dasharray="8"></path>
                        <path d="M159,0 L166,150" id="Line-2" stroke="#00A2FF" stroke-width="2" stroke-dasharray="8"></path>
                        <path d="M16.5,83.5 L163,146" id="Line-2" stroke="#00A2FF" stroke-width="2" stroke-dasharray="8"></path>
                    </g>
                    <g id="center-group" transform="translate(66.000000, 52.000000)" fill-rule="nonzero">
                        <circle id="Oval-7" stroke="#0074BD" stroke-width="4" fill="#F5F5F5" cx="40" cy="40" r="40"></circle>
                        <path d="M45.0879442,41.4403266 C50.2321453,39.4786889 53.8877705,34.4983378 53.8877705,28.6663227 C53.8877705,21.1202348 47.7675357,15 40.2214478,15 C32.67536,15 26.5551252,21.1202348 26.5551252,28.6663227 C26.5551252,34.6405158 30.3911631,39.7210134 35.7338038,41.5783805 C31.5299907,42.7972069 25.9905755,44.8292595 24.4249334,46.3933514 C22.6414783,48.1768065 20.7355494,55.2076201 20.038567,58.9795252 C19.8404053,60.0477761 20.421224,61.0886943 21.4279765,61.498684 C24.6031188,62.7924292 31.8644915,65.3093103 40.2214478,65.3093103 C48.5784041,65.3093103 55.8397769,62.7924292 59.0149192,61.498684 C60.0216717,61.0886943 60.6024904,60.0477761 60.4043287,58.9795252 C59.7073462,55.2076201 58.0964748,48.1768065 56.3130196,46.3933514 C54.784532,44.8663771 49.3383848,42.668723 45.0879442,41.4403266 Z" id="Combined-Shape" fill="#0074C0"></path>
                    </g>
                    <circle id="Oval-7" stroke="#0074BD" stroke-width="3" fill="#FFFFFF" fill-rule="nonzero" cx="177" cy="10" r="4"></circle>
                    <circle id="Oval-7" stroke="#0074BD" stroke-width="3" fill="#FFFFFF" fill-rule="nonzero" cx="184" cy="157" r="4"></circle>
                    <circle id="Oval-7" stroke="#0074BD" stroke-width="3" fill="#FFFFFF" fill-rule="nonzero" cx="73" cy="159" r="4"></circle>
                    <circle id="Oval-7" stroke="#0074BD" stroke-width="3" fill="#FFFFFF" fill-rule="nonzero" cx="33" cy="92" r="4"></circle>
                    <g id="1" transform="translate(4.000000, 130.000000)" fill="#F5F5F5" fill-rule="nonzero">
                        <circle id="Oval-7" stroke="#0074BD" cx="18" cy="18" r="18"></circle>
                        <path d="M19.932753,18.414279 C21.7643848,17.715823 23.0659979,15.9425312 23.0659979,13.8659979 C23.0659979,11.1791561 20.8868419,9 18.2,9 C15.5131581,9 13.3340021,11.1791561 13.3340021,13.8659979 C13.3340021,15.9931547 14.6998525,17.8021045 16.6021403,18.4634341 C15.1053407,18.8974065 13.1329899,19.6209343 12.5755311,20.1778411 C11.9405184,20.8128538 11.261898,23.3162284 11.0137321,24.6592438 C10.9431751,25.0396026 11.14998,25.4102295 11.5084419,25.5562094 C12.6389754,26.0168572 15.2244423,26.9130118 18.2,26.9130118 C21.1755577,26.9130118 23.7610246,26.0168572 24.8915581,25.5562094 C25.25002,25.4102295 25.4568249,25.0396026 25.3862679,24.6592438 C25.138102,23.3162284 24.564539,20.8128538 23.9295263,20.1778411 C23.3852967,19.6341503 21.4461546,18.8516588 19.932753,18.414279 Z" id="Combined-Shape" stroke="#0074C0"></path>
                    </g>
                    <g id="2" transform="translate(0.000000, 26.000000)" fill="#F5F5F5" fill-rule="nonzero">
                        <circle id="Oval-7" stroke="#0074BD" cx="18" cy="18" r="18"></circle>
                        <path d="M19.932753,18.414279 C21.7643848,17.715823 23.0659979,15.9425312 23.0659979,13.8659979 C23.0659979,11.1791561 20.8868419,9 18.2,9 C15.5131581,9 13.3340021,11.1791561 13.3340021,13.8659979 C13.3340021,15.9931547 14.6998525,17.8021045 16.6021403,18.4634341 C15.1053407,18.8974065 13.1329899,19.6209343 12.5755311,20.1778411 C11.9405184,20.8128538 11.261898,23.3162284 11.0137321,24.6592438 C10.9431751,25.0396026 11.14998,25.4102295 11.5084419,25.5562094 C12.6389754,26.0168572 15.2244423,26.9130118 18.2,26.9130118 C21.1755577,26.9130118 23.7610246,26.0168572 24.8915581,25.5562094 C25.25002,25.4102295 25.4568249,25.0396026 25.3862679,24.6592438 C25.138102,23.3162284 24.564539,20.8128538 23.9295263,20.1778411 C23.3852967,19.6341503 21.4461546,18.8516588 19.932753,18.414279 Z" id="Combined-Shape" stroke="#0074C0"></path>
                    </g>
                    <g id="3" transform="translate(87.000000, 0.000000)" fill="#F5F5F5" fill-rule="nonzero">
                        <circle id="Oval-7" stroke="#0074BD" cx="18" cy="18" r="18"></circle>
                        <path d="M19.932753,18.414279 C21.7643848,17.715823 23.0659979,15.9425312 23.0659979,13.8659979 C23.0659979,11.1791561 20.8868419,9 18.2,9 C15.5131581,9 13.3340021,11.1791561 13.3340021,13.8659979 C13.3340021,15.9931547 14.6998525,17.8021045 16.6021403,18.4634341 C15.1053407,18.8974065 13.1329899,19.6209343 12.5755311,20.1778411 C11.9405184,20.8128538 11.261898,23.3162284 11.0137321,24.6592438 C10.9431751,25.0396026 11.14998,25.4102295 11.5084419,25.5562094 C12.6389754,26.0168572 15.2244423,26.9130118 18.2,26.9130118 C21.1755577,26.9130118 23.7610246,26.0168572 24.8915581,25.5562094 C25.25002,25.4102295 25.4568249,25.0396026 25.3862679,24.6592438 C25.138102,23.3162284 24.564539,20.8128538 23.9295263,20.1778411 C23.3852967,19.6341503 21.4461546,18.8516588 19.932753,18.414279 Z" id="Combined-Shape" stroke="#0074C0"></path>
                    </g>
                    <g id="4" transform="translate(188.000000, 63.000000)" fill="#F5F5F5" fill-rule="nonzero">
                        <circle id="Oval-7" stroke="#0074BD" cx="18" cy="18" r="18"></circle>
                        <path d="M19.932753,18.414279 C21.7643848,17.715823 23.0659979,15.9425312 23.0659979,13.8659979 C23.0659979,11.1791561 20.8868419,9 18.2,9 C15.5131581,9 13.3340021,11.1791561 13.3340021,13.8659979 C13.3340021,15.9931547 14.6998525,17.8021045 16.6021403,18.4634341 C15.1053407,18.8974065 13.1329899,19.6209343 12.5755311,20.1778411 C11.9405184,20.8128538 11.261898,23.3162284 11.0137321,24.6592438 C10.9431751,25.0396026 11.14998,25.4102295 11.5084419,25.5562094 C12.6389754,26.0168572 15.2244423,26.9130118 18.2,26.9130118 C21.1755577,26.9130118 23.7610246,26.0168572 24.8915581,25.5562094 C25.25002,25.4102295 25.4568249,25.0396026 25.3862679,24.6592438 C25.138102,23.3162284 24.564539,20.8128538 23.9295263,20.1778411 C23.3852967,19.6341503 21.4461546,18.8516588 19.932753,18.414279 Z" id="Combined-Shape" stroke="#0074C0"></path>
                    </g>
                    <g id="5" transform="translate(105.000000, 146.000000)" fill="#F2F2F2" fill-rule="nonzero">
                        <circle id="Oval-7" stroke="#0074BD" cx="18" cy="18" r="18"></circle>
                        <path d="M19.932753,18.414279 C21.7643848,17.715823 23.0659979,15.9425312 23.0659979,13.8659979 C23.0659979,11.1791561 20.8868419,9 18.2,9 C15.5131581,9 13.3340021,11.1791561 13.3340021,13.8659979 C13.3340021,15.9931547 14.6998525,17.8021045 16.6021403,18.4634341 C15.1053407,18.8974065 13.1329899,19.6209343 12.5755311,20.1778411 C11.9405184,20.8128538 11.261898,23.3162284 11.0137321,24.6592438 C10.9431751,25.0396026 11.14998,25.4102295 11.5084419,25.5562094 C12.6389754,26.0168572 15.2244423,26.9130118 18.2,26.9130118 C21.1755577,26.9130118 23.7610246,26.0168572 24.8915581,25.5562094 C25.25002,25.4102295 25.4568249,25.0396026 25.3862679,24.6592438 C25.138102,23.3162284 24.564539,20.8128538 23.9295263,20.1778411 C23.3852967,19.6341503 21.4461546,18.8516588 19.932753,18.414279 Z" id="Combined-Shape" stroke="#0074C0"></path>
                    </g>
                </g>
            </g>
        </g>
    </g>
</svg>